<svg width="30" height="30" viewBox="0 0 30 30" fill="none" xmlns="http://www.w3.org/2000/svg">
<path d="M25.4307 0H4.56962C4.15058 0 3.81104 0.339694 3.81104 0.758583V29.2414C3.81104 29.6603 4.15058 30 4.56962 30H25.4307C25.8497 30 26.1892 29.6603 26.1892 29.2414V0.758583C26.1892 0.339694 25.8495 0 25.4307 0ZM14.626 3.24036H21.6808C22.0999 3.24036 22.4394 3.58006 22.4394 3.99895C22.4394 4.41784 22.0999 4.75753 21.6808 4.75753H14.626C14.207 4.75753 13.8674 4.41784 13.8674 3.99895C13.8674 3.58006 14.207 3.24036 14.626 3.24036ZM14.626 7.14707H21.6808C22.0999 7.14707 22.4394 7.48676 22.4394 7.90565C22.4394 8.32454 22.0999 8.66424 21.6808 8.66424H14.626C14.207 8.66424 13.8674 8.32454 13.8674 7.90565C13.8674 7.48676 14.207 7.14707 14.626 7.14707ZM8.8368 6.00039C8.55142 5.79072 8.36511 5.45391 8.36511 5.07356V4.39083C8.36511 3.75651 8.88125 3.24036 9.51573 3.24036C10.1502 3.24036 10.6662 3.75651 10.6662 4.39083V5.07356C10.6662 5.45391 10.4799 5.79087 10.1945 6.00039C11.0893 6.209 11.7587 7.01144 11.7587 7.96892C11.7587 8.38781 11.4192 8.7275 11.0001 8.7275H8.03119C7.61214 8.7275 7.2726 8.38781 7.2726 7.96892C7.2726 7.01144 7.94198 6.209 8.8368 6.00039ZM8.01586 11.0538H21.6807C22.0997 11.0538 22.4393 11.3935 22.4393 11.8124C22.4393 12.2312 22.0997 12.5709 21.6807 12.5709H8.01586C7.59682 12.5709 7.25728 12.2312 7.25728 11.8124C7.25728 11.3935 7.59697 11.0538 8.01586 11.0538ZM8.01586 14.9605H21.6807C22.0997 14.9605 22.4393 15.3002 22.4393 15.7191C22.4393 16.138 22.0997 16.4776 21.6807 16.4776H8.01586C7.59682 16.4776 7.25728 16.138 7.25728 15.7191C7.25728 15.3002 7.59697 14.9605 8.01586 14.9605ZM8.01586 18.8672H21.6807C22.0997 18.8672 22.4393 19.2069 22.4393 19.6258C22.4393 20.0447 22.0997 20.3843 21.6807 20.3843H8.01586C7.59682 20.3843 7.25728 20.0447 7.25728 19.6258C7.25728 19.2069 7.59697 18.8672 8.01586 18.8672ZM11.8467 25.8299H8.01586C7.59682 25.8299 7.25728 25.4902 7.25728 25.0713C7.25728 24.6524 7.59682 24.3127 8.01586 24.3127H11.8467C12.2657 24.3127 12.6053 24.6524 12.6053 25.0713C12.6053 25.4904 12.2657 25.8299 11.8467 25.8299ZM21.9843 25.8299H18.1534C17.7344 25.8299 17.3948 25.4902 17.3948 25.0713C17.3948 24.6524 17.7344 24.3127 18.1534 24.3127H21.9843C22.4033 24.3127 22.7428 24.6524 22.7428 25.0713C22.7428 25.4904 22.4033 25.8299 21.9843 25.8299Z" fill="white"/>
</svg>
